<svg width="75" height="75" viewBox="0 0 75 75" fill="none" xmlns="http://www.w3.org/2000/svg">
<g id="Asset 2" clipPath="url(#clip0_5392_4952)">
<g id="Layer 2">
<g id="Design">
<path id="Vector" d="M37.4872 74.9844C30.0704 74.9844 22.8201 72.785 16.6533 68.6645C10.4864 64.5439 5.67998 58.6872 2.84169 51.835C0.00340788 44.9828 -0.739217 37.4428 0.707728 30.1685C2.15467 22.8942 5.7262 16.2124 10.9707 10.9679C16.2151 5.72342 22.897 2.15189 30.1713 0.704944C37.4456 -0.742002 44.9856 0.000623155 51.8378 2.83891C58.69 5.67719 64.5467 10.4837 68.6673 16.6505C72.7878 22.8173 74.9872 30.0676 74.9872 37.4844C74.9762 47.4267 71.0219 56.9586 63.9916 63.9888C56.9614 71.0191 47.4294 74.9735 37.4872 74.9844ZM37.4872 4.02285C30.8691 4.02285 24.3997 5.98534 18.8969 9.66214C13.3942 13.3389 9.10537 18.5649 6.57274 24.6792C4.04012 30.7935 3.37747 37.5215 4.66859 44.0124C5.95971 50.5033 9.14661 56.4656 13.8263 61.1453C18.506 65.8249 24.4682 69.0118 30.9591 70.303C37.45 71.5941 44.178 70.9314 50.2923 68.3988C56.4066 65.8662 61.6326 61.5773 65.3094 56.0746C68.9862 50.5719 70.9487 44.1024 70.9487 37.4844C70.9378 28.6132 67.4089 20.1084 61.136 13.8356C54.8631 7.56266 46.3584 4.03376 37.4872 4.02285Z" fill="#3C5A99"/>
<path id="Vector_2" fill-rule="evenodd" clip-rule="evenodd" d="M31.5992 37.6709V59.4056C31.5992 59.555 31.6585 59.6983 31.7642 59.8039C31.8698 59.9096 32.0131 59.9689 32.1625 59.9689H40.2546C40.404 59.9689 40.5473 59.9096 40.6529 59.8039C40.7586 59.6983 40.8179 59.555 40.8179 59.4056V37.3137H46.7119C46.8522 37.3143 46.9877 37.2626 47.0919 37.1686C47.1961 37.0745 47.2615 36.945 47.2751 36.8053L47.8384 30.142C47.8441 30.0647 47.8337 29.987 47.808 29.9138C47.7822 29.8406 47.7416 29.7735 47.6888 29.7168C47.6359 29.66 47.5718 29.6148 47.5007 29.584C47.4295 29.5531 47.3527 29.5373 47.2751 29.5375H40.8179V24.8114C40.8179 24.2794 41.0292 23.7692 41.4054 23.393C41.7816 23.0168 42.2918 22.8055 42.8238 22.8055H47.3301C47.4795 22.8055 47.6228 22.7462 47.7284 22.6405C47.834 22.5349 47.8934 22.3916 47.8934 22.2422V15.5927C47.8952 15.5175 47.882 15.4428 47.8545 15.3729C47.827 15.3029 47.7858 15.2392 47.7333 15.1854C47.6809 15.1317 47.6181 15.0889 47.5489 15.0598C47.4796 15.0306 47.4052 15.0156 47.3301 15.0156H39.7188C37.569 15.0156 35.5072 15.8696 33.9871 17.3898C32.4669 18.9099 31.6129 20.9717 31.6129 23.1215V29.5375H27.5875C27.5123 29.5357 27.4376 29.5489 27.3677 29.5764C27.2978 29.6039 27.234 29.6451 27.1803 29.6976C27.1265 29.7501 27.0838 29.8128 27.0546 29.882C27.0254 29.9513 27.0104 30.0257 27.0104 30.1008V36.7504C27.0104 36.8255 27.0254 36.8999 27.0546 36.9692C27.0838 37.0384 27.1265 37.1011 27.1803 37.1536C27.234 37.2061 27.2978 37.2473 27.3677 37.2748C27.4376 37.3023 27.5123 37.3155 27.5875 37.3137H31.5992V37.6709Z" fill="#3C5A99"/>
</g>
</g>
</g>
<defs>
<clipPath id="clip0_5392_4952">
<rect width="75" height="75" fill="white"/>
</clipPath>
</defs>
</svg>
