<svg width="75" height="75" viewBox="0 0 75 75" fill="none" xmlns="http://www.w3.org/2000/svg">
<g id="Asset 8 2" clipPath="url(#clip0_5392_4946)">
<g id="Layer 2">
<g id="Design">
<path id="Vector" d="M37.4871 74.9844C30.0703 74.9844 22.8201 72.785 16.6532 68.6645C10.4864 64.5439 5.67991 58.6872 2.84162 51.835C0.00333927 44.9828 -0.739286 37.4428 0.70766 30.1685C2.15461 22.8942 5.72613 16.2124 10.9706 10.9679C16.2151 5.72342 22.8969 2.15189 30.1712 0.704944C37.4455 -0.742002 44.9855 0.000623206 51.8377 2.83891C58.69 5.67719 64.5467 10.4837 68.6672 16.6505C72.7878 22.8173 74.9871 30.0676 74.9871 37.4844C74.9798 47.4278 71.0265 56.9618 63.9955 63.9928C56.9645 71.0238 47.4305 74.9771 37.4871 74.9844ZM37.4871 3.5657C30.7753 3.5657 24.2142 5.55615 18.6338 9.28532C13.0533 13.0145 8.70409 18.3148 6.13622 24.516C3.56836 30.7172 2.89719 37.5406 4.2076 44.1232C5.51802 50.7058 8.75115 56.752 13.4981 61.497C18.245 66.242 24.2925 69.4727 30.8757 70.7804C37.4588 72.0881 44.282 71.4142 50.4821 68.8438C56.6822 66.2734 61.9808 61.922 65.7077 56.34C69.4346 50.7581 71.4224 44.1962 71.4196 37.4844C71.4123 28.4884 67.8345 19.8633 61.4721 13.5035C55.1097 7.14366 46.483 3.56936 37.4871 3.5657ZM50.1392 22.2742C49.5922 22.2742 49.0576 22.4364 48.6028 22.7403C48.148 23.0442 47.7935 23.4761 47.5842 23.9814C47.3749 24.4867 47.3201 25.0428 47.4268 25.5792C47.5336 26.1157 47.7969 26.6084 48.1837 26.9952C48.5705 27.382 49.0632 27.6453 49.5997 27.752C50.1361 27.8587 50.6922 27.804 51.1975 27.5947C51.7028 27.3854 52.1347 27.0309 52.4386 26.5761C52.7425 26.1213 52.9047 25.5867 52.9047 25.0397C52.9047 24.3062 52.6133 23.6028 52.0947 23.0842C51.5761 22.5656 50.8727 22.2742 50.1392 22.2742ZM37.8051 25.8417C35.4991 25.8417 33.2449 26.5257 31.3277 27.8071C29.4105 29.0886 27.9164 30.9099 27.0346 33.0406C26.1527 35.1714 25.9227 37.5159 26.3736 39.7774C26.8245 42.0389 27.936 44.1159 29.5676 45.7455C31.1992 47.3751 33.2775 48.4842 35.5395 48.9324C37.8016 49.3806 40.1458 49.1478 42.2755 48.2635C44.4052 47.3791 46.2247 45.8829 47.5039 43.9642C48.7831 42.0454 49.4644 39.7904 49.4617 37.4844C49.4543 34.3964 48.2235 31.4372 46.0386 29.2549C43.8538 27.0727 40.8931 25.8453 37.8051 25.8417ZM37.8051 44.9512C36.3283 44.9512 34.8847 44.5133 33.6568 43.6928C32.4289 42.8723 31.4718 41.7062 30.9067 40.3418C30.3416 38.9774 30.1937 37.4761 30.4818 36.0277C30.7699 34.5793 31.481 33.2488 32.5253 32.2045C33.5695 31.1603 34.9 30.4492 36.3484 30.161C37.7968 29.8729 39.2982 30.0208 40.6626 30.5859C42.0269 31.1511 43.1931 32.1081 44.0136 33.336C44.834 34.564 45.2719 36.0076 45.2719 37.4844C45.2719 39.4647 44.4853 41.3639 43.085 42.7642C41.6847 44.1645 39.7854 44.9512 37.8051 44.9512ZM61.3118 27.8052C61.3118 24.0352 59.8142 20.4197 57.1484 17.7539C54.4827 15.0882 50.8671 13.5906 47.0972 13.5906H28.3472C24.5772 13.5906 20.9617 15.0882 18.2959 17.7539C15.6302 20.4197 14.1326 24.0352 14.1326 27.8052V46.569C14.1253 48.4403 14.4876 50.2947 15.1987 52.0257C15.9098 53.7567 16.9557 55.3302 18.2763 56.656C19.597 57.9818 21.1665 59.0338 22.8947 59.7516C24.6229 60.4694 26.4758 60.8389 28.3472 60.8389H47.0972C48.9685 60.8389 50.8215 60.4694 52.5497 59.7516C54.2779 59.0338 55.8473 57.9818 57.168 56.656C58.4887 55.3302 59.5346 53.7567 60.2457 52.0257C60.9567 50.2947 61.319 48.4403 61.3118 46.569V27.8052ZM56.8593 46.569C56.8593 49.1581 55.8308 51.6411 54.0001 53.4719C52.1693 55.3027 49.6863 56.3312 47.0972 56.3312H28.3472C25.7568 56.3312 23.2723 55.3031 21.4394 53.4727C19.6064 51.6424 18.5748 49.1594 18.5712 46.569V27.8052C18.5748 25.2148 19.6064 22.7318 21.4394 20.9014C23.2723 19.0711 25.7568 18.043 28.3472 18.043H47.0972C49.6863 18.043 52.1693 19.0715 54.0001 20.9023C55.8308 22.733 56.8593 25.2161 56.8593 27.8052V46.569Z" fill="url(#paint0_linear_5392_4946)"/>
</g>
</g>
</g>
<defs>
<linearGradient id="paint0_linear_5392_4946" x1="7.20503" y1="63.2864" x2="100.222" y2="-15.9172" gradientUnits="userSpaceOnUse">
<stop stop-color="#FBE18A"/>
<stop offset="0.21" stop-color="#FCBB45"/>
<stop offset="0.38" stop-color="#F75274"/>
<stop offset="0.52" stop-color="#D53692"/>
<stop offset="0.74" stop-color="#8F39CE"/>
<stop offset="1" stop-color="#5B4FE9"/>
</linearGradient>
<clipPath id="clip0_5392_4946">
<rect width="75" height="75" fill="white"/>
</clipPath>
</defs>
</svg>
