<svg width="75" height="75" viewBox="0 0 75 75" fill="none" xmlns="http://www.w3.org/2000/svg">
<path d="M75 37.5C75 58.2107 58.2107 75 37.5 75C16.7893 75 0 58.2107 0 37.5C0 16.7893 16.7893 0 37.5 0C58.2107 0 75 16.7893 75 37.5ZM3.75 37.5C3.75 56.1396 18.8604 71.25 37.5 71.25C56.1396 71.25 71.25 56.1396 71.25 37.5C71.25 18.8604 56.1396 3.75 37.5 3.75C18.8604 3.75 3.75 18.8604 3.75 37.5Z" fill="black"/>
<path fill-rule="evenodd" clip-rule="evenodd" d="M54.0113 44.6734C53.0751 44.2521 48.611 42.2079 47.7751 41.927C46.9391 41.6462 46.3205 41.5057 45.7186 42.3484C45.1167 43.191 43.2776 45.0792 42.8262 45.6409C42.3748 46.2027 41.7562 46.2807 40.8366 45.8594C38.1448 44.8735 35.6602 43.4526 33.4969 41.6618C31.5261 39.9576 29.8359 37.991 28.4811 35.8257C27.9628 34.983 28.4811 34.5305 28.8824 34.1091C29.2836 33.6878 29.7852 33.1105 30.2534 32.6267C30.3871 32.4863 30.4874 32.3458 30.5877 32.221C30.8042 31.8967 30.9942 31.5576 31.1562 31.2067C31.2879 30.979 31.3569 30.7243 31.3569 30.4655C31.3569 30.2067 31.2879 29.952 31.1562 29.7243C30.9388 29.3029 29.0997 25.1521 28.3474 23.4824C27.595 21.8127 26.8259 22.0936 26.2909 22.0936C25.7559 22.0936 25.154 22 24.619 22C24.1584 22.0114 23.7053 22.1116 23.2881 22.2942C22.8709 22.4768 22.4987 22.7379 22.1947 23.0611C21.1658 23.9646 20.3502 25.0586 19.8004 26.2731C19.2505 27.4877 18.9783 28.796 19.0013 30.1144C19.0139 31.0922 19.1715 32.0637 19.4695 33.0012C20.1251 35.0953 21.1599 37.0692 22.5291 38.8373C22.9805 39.3835 28.8322 48.2001 38.0947 51.6019C47.3571 55.0037 47.3905 53.8333 49.0625 53.6929C50.7344 53.5525 54.4628 51.6643 55.1984 49.6825C55.7962 48.4187 55.9879 47.0201 55.7501 45.6565C55.5161 45.3132 54.981 45.0792 54.0113 44.6734Z" fill="black"/>
</svg>
