<svg width="205" height="56" viewBox="0 0 205 56" fill="none" xmlns="http://www.w3.org/2000/svg">
<path d="M73.7492 27.4705L84.2 13.8828H91.4753L81.9872 25.9374L92.7296 42.1625H85.2764L77.894 30.5367L73.6849 35.8157V42.1625H67.4453V13.8828H73.7214V27.4705H73.7492Z" fill="white"/>
<path d="M101.323 19.2682H91.5156L95.759 13.8477H115.16V19.2682H107.636V42.1638H101.36V19.2682H101.323Z" fill="white"/>
<path d="M116.688 28.005C116.681 26.7375 116.862 25.476 117.224 24.2613C117.56 23.0664 118.066 21.9256 118.725 20.8735C120.027 18.7746 121.844 17.0436 124.004 15.8454C125.112 15.2171 126.298 14.7363 127.531 14.4152C128.811 14.0818 130.13 13.9259 131.453 13.952C132.774 13.959 134.09 14.1144 135.376 14.4152C136.612 14.7295 137.799 15.2099 138.906 15.8432C139.991 16.4431 140.999 17.1732 141.908 18.0174C142.815 18.8508 143.596 19.8122 144.225 20.8713C144.877 21.9274 145.382 23.0671 145.726 24.2591C146.083 25.475 146.263 26.7358 146.26 28.0029C146.254 30.5228 145.55 32.9917 144.228 35.1366C142.941 37.2689 141.106 39.0171 138.914 40.199C137.802 40.8207 136.616 41.3004 135.385 41.6271C134.104 41.9684 132.786 42.1477 131.461 42.161C130.135 42.1658 128.816 41.9861 127.539 41.6271C126.308 41.2971 125.122 40.8175 124.008 40.199C122.931 39.6069 121.936 38.876 121.049 38.0248C120.161 37.1601 119.382 36.1902 118.729 35.1366C118.079 34.0798 117.574 32.9403 117.228 31.7488C116.864 30.5343 116.682 29.2728 116.688 28.005ZM123 28.0415C122.993 29.2248 123.211 30.3986 123.643 31.5001C124.053 32.5316 124.672 33.4669 125.462 34.2468C126.235 35.0271 127.157 35.6453 128.172 36.0651C130.288 36.9198 132.653 36.9198 134.77 36.0651C135.785 35.646 136.707 35.0278 137.48 34.2468C138.239 33.4489 138.843 32.5177 139.264 31.5001C139.702 30.4002 139.92 29.2253 139.907 28.0415C139.914 26.8583 139.696 25.6846 139.264 24.5829C138.853 23.5604 138.247 22.6275 137.48 21.8362C136.713 21.0473 135.79 20.4279 134.77 20.0179C133.718 19.5857 132.59 19.367 131.453 19.3747C130.34 19.366 129.238 19.5792 128.209 20.0019C127.18 20.4246 126.246 21.0482 125.462 21.8362C124.691 22.6317 124.075 23.563 123.643 24.5829C123.208 25.6834 122.989 26.8579 123 28.0415Z" fill="white"/>
<path d="M167.005 31.1379C167.76 30.7881 168.467 30.3444 169.111 29.817C169.717 29.2887 170.245 28.6764 170.678 27.9988C171.132 27.2842 171.469 26.5017 171.677 25.6809C171.91 24.7962 172.03 23.8855 172.033 22.9707C172.051 21.695 171.796 20.4302 171.285 19.2612C170.826 18.1711 170.146 17.1878 169.289 16.373C168.383 15.5526 167.33 14.9115 166.186 14.484C164.926 14.0421 163.598 13.8244 162.262 13.8407H154.667L150.422 19.2612H161.985C162.473 19.2482 162.958 19.3335 163.411 19.5121C163.852 19.6934 164.252 19.9601 164.589 20.2968C164.925 20.6336 165.192 21.0337 165.373 21.474C165.576 21.9489 165.685 22.4586 165.695 22.9749C165.717 23.5047 165.606 24.0316 165.373 24.508C165.202 24.943 164.933 25.3331 164.588 25.6487C164.242 25.9648 163.844 26.2187 163.411 26.3992C162.957 26.5739 162.472 26.6584 161.985 26.6479H150.43V42.1611H156.709V32.0684H160.738L166.158 42.1611H173.433L167.005 31.1379Z" fill="white"/>
<path d="M175.422 28.0029C175.415 26.7354 175.596 25.4738 175.958 24.2591C176.295 23.0642 176.8 21.9234 177.459 20.8713C178.761 18.7724 180.578 17.0415 182.738 15.8432C183.848 15.2154 185.035 14.7353 186.27 14.4152C187.549 14.0818 188.869 13.9259 190.191 13.952C191.512 13.959 192.829 14.1144 194.115 14.4152C195.351 14.7295 196.538 15.2099 197.644 15.8432C198.729 16.4436 199.737 17.1737 200.646 18.0174C201.554 18.8508 202.335 19.8122 202.964 20.8713C203.616 21.9274 204.121 23.0671 204.465 24.2591C204.822 25.475 205.001 26.7358 204.999 28.0029C204.992 30.5228 204.289 32.9917 202.966 35.1366C202.319 36.1934 201.54 37.1638 200.648 38.0248C199.754 38.886 198.744 39.6179 197.647 40.199C196.534 40.8207 195.349 41.3004 194.117 41.6271C192.837 41.9684 191.519 42.1477 190.193 42.161C188.868 42.1658 187.548 41.9861 186.272 41.6271C185.041 41.2971 183.855 40.8175 182.74 40.199C181.663 39.6069 180.668 38.876 179.781 38.0248C178.893 37.1601 178.114 36.1902 177.461 35.1366C176.811 34.0797 176.306 32.9403 175.96 31.7488C175.597 30.5335 175.416 29.2712 175.422 28.0029ZM181.664 28.0394C181.657 29.2225 181.876 30.3962 182.307 31.4979C182.718 32.5292 183.338 33.4643 184.127 34.2446C184.901 35.0254 185.822 35.6436 186.838 36.0629C188.954 36.9176 191.319 36.9176 193.435 36.0629C194.451 35.6439 195.373 35.0256 196.146 34.2446C196.904 33.4472 197.509 32.5159 197.928 31.4979C198.367 30.3984 198.585 29.2232 198.571 28.0394C198.578 26.8561 198.36 25.6822 197.928 24.5808C197.518 23.5579 196.913 22.6249 196.146 21.8341C195.379 21.0457 194.456 20.4263 193.435 20.0158C192.383 19.5835 191.256 19.3649 190.118 19.3725C189.006 19.3639 187.904 19.5771 186.875 19.9997C185.846 20.4224 184.912 21.046 184.127 21.8341C183.357 22.6299 182.74 23.561 182.307 24.5808C181.872 25.6816 181.654 26.8559 181.664 28.0394Z" fill="white"/>
<path d="M18.867 8.31752L19.7933 9.46037L22.8595 13.3199C23.1476 13.6763 23.5116 13.9637 23.9251 14.1612C24.3386 14.3586 24.791 14.4611 25.2492 14.4611C25.7074 14.4611 26.1598 14.3586 26.5733 14.1612C26.9868 13.9637 27.3509 13.6763 27.6389 13.3199L30.7072 9.46037L31.6336 8.31752L34.5218 4.6724L36.3057 2.46174C32.8596 0.835237 29.0952 -0.00551999 25.2846 0.00021131C21.4735 -0.0153238 17.7078 0.825918 14.2656 2.46174L16.0496 4.6724L18.867 8.31752Z" fill="white"/>
<path d="M48.9299 26.6511C48.7498 27.08 48.5376 27.5796 48.3232 28.0062C46.6383 31.3409 44.2541 34.2729 41.3331 36.6023V36.6366H38.6593C38.6548 36.228 38.5949 35.8219 38.4813 35.4294C38.214 34.626 37.703 33.9259 37.0194 33.4263C36.3358 32.9267 35.5134 32.6526 34.6668 32.642C34.1373 32.6414 33.6128 32.7453 33.1235 32.9477C32.6342 33.1501 32.1896 33.447 31.8151 33.8214C31.4407 34.1958 31.1438 34.6404 30.9414 35.1298C30.739 35.6191 30.6352 36.1435 30.6357 36.6731H27.9619C27.9605 35.7969 28.132 34.9292 28.4667 34.1195C28.8013 33.3098 29.2924 32.5741 29.9119 31.9546C30.5314 31.3351 31.2671 30.844 32.0768 30.5094C32.8865 30.1747 33.7543 30.0032 34.6304 30.0046C35.874 30.0123 37.0915 30.3626 38.1491 31.017C39.2068 31.6714 40.0636 32.6046 40.6255 33.7141C44.0044 30.7113 46.4237 26.7796 47.5812 22.4099C47.7228 21.9811 47.7957 21.5908 47.9008 21.1234C48.2174 19.5748 48.3726 17.9975 48.3639 16.4169C48.3704 15.6284 48.3231 14.8404 48.2224 14.0583C47.6832 8.73337 45.2992 3.76451 41.4832 0.0117188L38.5607 3.72117L36.8131 5.89537L34.1929 9.17813L29.9046 14.5986C29.7609 14.8131 29.5829 14.991 29.4393 15.2033C28.4781 16.2682 27.1583 16.9415 25.732 17.0945C25.554 17.0945 25.3396 17.1309 25.1616 17.1309C24.9701 17.1369 24.7784 17.1247 24.5891 17.0945C23.1611 16.9472 21.8393 16.2729 20.8818 15.2033C20.6971 15.0269 20.5409 14.8229 20.4187 14.5986L16.1303 9.17813L13.5273 5.89537L11.7797 3.72117L8.89151 0.0117188C5.08857 3.77584 2.7065 8.74079 2.1502 14.0626C2.07944 14.8474 2.00867 15.6321 2.00867 16.4212C2.01805 18.0009 2.1731 19.5764 2.47183 21.1277C2.54852 21.5636 2.656 21.9935 2.79345 22.4142C3.9566 26.7772 6.36985 30.7049 9.73631 33.7141C10.4089 32.3716 11.5142 31.2949 12.8739 30.6578C14.2335 30.0207 15.7682 29.8602 17.2302 30.2025C18.6922 30.5447 19.9963 31.3695 20.9319 32.5439C21.8675 33.7183 22.3801 35.1737 22.387 36.6752H19.7132C19.7158 35.7166 19.3757 34.7886 18.7543 34.0586C18.1329 33.3286 17.2712 32.8447 16.3244 32.6941C15.3777 32.5435 14.4083 32.7361 13.5911 33.2373C12.7739 33.7385 12.1627 34.5152 11.8677 35.4273C11.7362 35.8172 11.6759 36.2275 11.6897 36.6388H9.01372V36.6044C6.10272 34.265 3.7204 31.3353 2.02367 28.0084C1.79442 27.5696 1.59249 27.117 1.41902 26.6533C1.05639 28.3169 0.876639 30.0152 0.882974 31.7178C0.893033 33.0924 1.01206 34.4639 1.23892 35.8197C1.27035 36.084 1.31831 36.3461 1.38256 36.6044C2.52394 42.0676 5.50473 46.9739 9.82732 50.5043C14.1499 54.0347 19.5527 55.9756 25.1337 56.0029C36.8303 56.0029 46.6014 47.6577 48.8849 36.6044C48.9153 36.3401 48.9625 36.078 49.0265 35.8197C49.2536 34.464 49.3733 33.0924 49.3845 31.7178C49.4304 30.017 49.2778 28.3166 48.9299 26.6511Z" fill="white"/>
</svg>
